<svg width="102" height="36" viewBox="0 0 102 36" fill="none" xmlns="http://www.w3.org/2000/svg">
<path d="M90.5478 25.9614C87.8951 25.9614 85.5658 25.4115 83.5601 24.3115C81.5544 23.1793 79.9853 21.6426 78.8531 19.7016C77.7208 17.7282 77.1547 15.4798 77.1547 12.9564C77.1547 10.4331 77.6885 8.2009 78.756 6.25986C79.8559 4.31882 81.3441 2.79833 83.2204 1.69841C85.1291 0.566138 87.2642 0 89.6258 0C92.0198 0 94.1388 0.549963 95.9827 1.64989C97.8591 2.71746 99.331 4.23794 100.399 6.21133C101.466 8.15237 102 10.4007 102 12.9564C102 13.1182 101.984 13.2961 101.951 13.4902C101.951 13.652 101.951 13.8299 101.951 14.024H79.7751V11.4521H100.107L98.7487 12.4712C98.7487 10.6272 98.3443 8.99349 97.5356 7.57006C96.7592 6.11428 95.6916 4.982 94.3329 4.17324C92.9741 3.36447 91.4051 2.96009 89.6258 2.96009C87.8789 2.96009 86.3099 3.36447 84.9188 4.17324C83.5277 4.982 82.444 6.11428 81.6676 7.57006C80.8912 9.02584 80.503 10.6919 80.503 12.5682V13.102C80.503 15.0431 80.9235 16.7576 81.7646 18.2458C82.6381 19.7016 83.8351 20.85 85.3556 21.6911C86.9084 22.4999 88.6715 22.9043 90.6449 22.9043C92.1977 22.9043 93.6373 22.6293 94.9637 22.0793C96.3224 21.5294 97.4871 20.6883 98.4576 19.556L100.399 21.7882C99.2663 23.1469 97.8429 24.1821 96.1283 24.8938C94.4461 25.6056 92.5859 25.9614 90.5478 25.9614Z" fill="#272727"/>
<path d="M65.3009 25.9614C63.1981 25.9614 61.2085 25.6703 59.3322 25.0879C57.4559 24.4733 55.9839 23.713 54.9163 22.8072L56.4692 20.0898C57.5044 20.8662 58.8308 21.5455 60.4483 22.1279C62.0658 22.6778 63.7642 22.9528 65.5435 22.9528C67.9698 22.9528 69.7168 22.5808 70.7843 21.8367C71.8519 21.0603 72.3857 20.0412 72.3857 18.7796C72.3857 17.8414 72.0783 17.1135 71.4637 16.5959C70.8814 16.0459 70.105 15.6416 69.1344 15.3827C68.1639 15.0916 67.0802 14.849 65.8832 14.6549C64.6862 14.4608 63.4893 14.2343 62.2923 13.9755C61.1277 13.7167 60.0601 13.3447 59.0896 12.8594C58.119 12.3418 57.3264 11.6462 56.7118 10.7728C56.1295 9.89931 55.8383 8.73468 55.8383 7.2789C55.8383 5.88782 56.2265 4.64232 57.0029 3.5424C57.7794 2.44248 58.9116 1.58518 60.3998 0.97052C61.9202 0.323507 63.7642 0 65.9317 0C67.5816 0 69.2315 0.226456 70.8814 0.679365C72.5313 1.09992 73.89 1.66606 74.9576 2.37777L73.4533 5.14376C72.321 4.36734 71.1078 3.81738 69.8138 3.49387C68.5198 3.13802 67.2257 2.96009 65.9317 2.96009C63.6348 2.96009 61.9364 3.36447 60.8365 4.17324C59.7689 4.94965 59.2351 5.95252 59.2351 7.18185C59.2351 8.15237 59.5263 8.91261 60.1086 9.46257C60.7233 10.0125 61.5159 10.4493 62.4864 10.7728C63.4892 11.0639 64.573 11.3066 65.7376 11.5007C66.9346 11.6948 68.1154 11.9374 69.28 12.2286C70.477 12.4874 71.5607 12.8594 72.5313 13.3447C73.5341 13.7976 74.3267 14.4608 74.909 15.3342C75.5237 16.1753 75.831 17.2914 75.831 18.6825C75.831 20.1706 75.4105 21.4647 74.5694 22.5646C73.7606 23.6322 72.5636 24.4733 70.9784 25.0879C69.4256 25.6703 67.5331 25.9614 65.3009 25.9614Z" fill="#272727"/>
<path d="M40.8461 25.9614C38.3874 25.9614 36.1714 25.4115 34.198 24.3115C32.257 23.1793 30.7203 21.6426 29.5881 19.7016C28.4558 17.7282 27.8896 15.4798 27.8896 12.9564C27.8896 10.4007 28.4558 8.15237 29.5881 6.21133C30.7203 4.27029 32.257 2.74981 34.198 1.64989C36.1391 0.549963 38.3551 0 40.8461 0C43.3694 0 45.6016 0.549963 47.5427 1.64989C49.5161 2.74981 51.0527 4.27029 52.1526 6.21133C53.2849 8.15237 53.8511 10.4007 53.8511 12.9564C53.8511 15.4798 53.2849 17.7282 52.1526 19.7016C51.0527 21.6426 49.5161 23.1793 47.5427 24.3115C45.5693 25.4115 43.3371 25.9614 40.8461 25.9614ZM40.8461 22.9043C42.6901 22.9043 44.3238 22.4999 45.7472 21.6911C47.1706 20.85 48.2867 19.6854 49.0955 18.1973C49.9366 16.6768 50.3572 14.9298 50.3572 12.9564C50.3572 10.9507 49.9366 9.20377 49.0955 7.71564C48.2867 6.2275 47.1706 5.07906 45.7472 4.27029C44.3238 3.42917 42.7063 3.00861 40.8946 3.00861C39.083 3.00861 37.4654 3.42917 36.042 4.27029C34.6186 5.07906 33.4863 6.2275 32.6452 7.71564C31.8041 9.20377 31.3835 10.9507 31.3835 12.9564C31.3835 14.9298 31.8041 16.6768 32.6452 18.1973C33.4863 19.6854 34.6186 20.85 36.042 21.6911C37.4654 22.4999 39.0668 22.9043 40.8461 22.9043Z" fill="#272727"/>
<path d="M13.1505 25.9614C10.9507 25.9614 8.96113 25.46 7.18185 24.4571C5.40256 23.4219 3.97913 21.9499 2.91156 20.0412C1.87634 18.1002 1.35873 15.7386 1.35873 12.9564C1.35873 10.1743 1.87634 7.82886 2.91156 5.92017C3.94678 3.97913 5.35404 2.50718 7.13332 1.50431C8.91261 0.501437 10.9183 0 13.1505 0C15.5768 0 17.7443 0.549963 19.653 1.64989C21.5941 2.71746 23.1145 4.23794 24.2145 6.21133C25.3144 8.15237 25.8644 10.4007 25.8644 12.9564C25.8644 15.5445 25.3144 17.809 24.2145 19.7501C23.1145 21.6911 21.5941 23.2116 19.653 24.3115C17.7443 25.4115 15.5768 25.9614 13.1505 25.9614ZM0 35.1328V0.242631H3.29977V7.90974L2.96009 13.005L3.44534 18.1487V35.1328H0ZM12.9079 22.9043C14.7196 22.9043 16.3371 22.4999 17.7605 21.6911C19.1839 20.85 20.3162 19.6854 21.1573 18.1973C21.9985 16.6768 22.419 14.9298 22.419 12.9564C22.419 10.9831 21.9985 9.25229 21.1573 7.76416C20.3162 6.27603 19.1839 5.11141 17.7605 4.27029C16.3371 3.42917 14.7196 3.00861 12.9079 3.00861C11.0963 3.00861 9.46257 3.42917 8.00679 4.27029C6.58336 5.11141 5.45109 6.27603 4.60997 7.76416C3.8012 9.25229 3.39682 10.9831 3.39682 12.9564C3.39682 14.9298 3.8012 16.6768 4.60997 18.1973C5.45109 19.6854 6.58336 20.85 8.00679 21.6911C9.46257 22.4999 11.0963 22.9043 12.9079 22.9043Z" fill="#272727"/>
<path fill-rule="evenodd" clip-rule="evenodd" d="M17.5 17.491C16.3341 18.6592 14.7219 19.382 12.941 19.382C9.38374 19.382 6.5 16.4983 6.5 12.941C6.5 9.38374 9.38374 6.5 12.941 6.5C14.8706 6.5 16.602 7.34849 17.7825 8.69272C19.6418 10.593 21.0476 11.5 22 11.5H31.5C32.5 11.5 34 10.5 36 8.50002V8.53668C37.1752 7.28316 38.8461 6.5 40.6999 6.5C44.2571 6.5 47.1409 9.38374 47.1409 12.941C47.1409 16.4983 44.2571 19.382 40.6999 19.382C38.8461 19.382 37.1752 18.5989 36 17.3454V17.4C34 15.5 32.5 14.5 31.5 14.5H22C20.8334 14.5 19.5 15.5 17.5 17.5V17.491Z" fill="url(#paint0_linear_20_91)"/>
<defs>
<linearGradient id="paint0_linear_20_91" x1="6.5" y1="12.941" x2="47.1409" y2="12.941" gradientUnits="userSpaceOnUse">
<stop stop-color="#942193"/>
<stop offset="1" stop-color="#1E43FF"/>
</linearGradient>
</defs>
</svg>
