<svg width="210" height="36" viewBox="0 0 210 36" fill="none" xmlns="http://www.w3.org/2000/svg">
<path d="M71.954 28.712C69.8459 28.712 67.995 28.2749 66.4011 27.4009C64.8073 26.5011 63.5604 25.28 62.6607 23.7375C61.7609 22.1694 61.311 20.3827 61.311 18.3775C61.311 16.3723 61.7352 14.5985 62.5836 13.0561C63.4576 11.5136 64.6402 10.3054 66.1312 9.43131C67.6479 8.53155 69.3446 8.08167 71.2213 8.08167C73.1236 8.08167 74.8075 8.51869 76.2728 9.39275C77.7638 10.2411 78.9335 11.4494 79.7819 13.0175C80.6302 14.56 81.0544 16.3466 81.0544 18.3775C81.0544 18.5061 81.0416 18.6475 81.0159 18.8017C81.0159 18.9302 81.0159 19.0716 81.0159 19.2259H63.3933V17.1821H79.5505L78.4708 17.9919C78.4708 16.5266 78.1495 15.2284 77.5068 14.0972C76.8898 12.9404 76.0414 12.0406 74.9617 11.3979C73.882 10.7552 72.6352 10.4339 71.2213 10.4339C69.8331 10.4339 68.5863 10.7552 67.4808 11.3979C66.3754 12.0406 65.5142 12.9404 64.8972 14.0972C64.2803 15.2541 63.9718 16.578 63.9718 18.069V18.4932C63.9718 20.0357 64.306 21.3982 64.9744 22.5807C65.6685 23.7375 66.6196 24.6502 67.8279 25.3186C69.0619 25.9612 70.4629 26.2826 72.0311 26.2826C73.265 26.2826 74.409 26.0641 75.463 25.627C76.5427 25.19 77.4682 24.5216 78.2394 23.6219L79.7819 25.3957C78.8821 26.4754 77.751 27.298 76.3885 27.8636C75.0517 28.4292 73.5735 28.712 71.954 28.712Z" fill="#272727"/>
<path d="M51.8913 28.712C50.2203 28.712 48.6393 28.4806 47.1482 28.0178C45.6572 27.5294 44.4875 26.9253 43.6392 26.2055L44.8731 24.046C45.6958 24.663 46.7498 25.2029 48.0351 25.6656C49.3205 26.1026 50.6702 26.3212 52.0841 26.3212C54.0121 26.3212 55.4004 26.0255 56.2487 25.4342C57.097 24.8173 57.5212 24.0075 57.5212 23.0049C57.5212 22.2594 57.277 21.6809 56.7886 21.2696C56.3258 20.8326 55.7088 20.5113 54.9376 20.3056C54.1664 20.0742 53.3052 19.8814 52.354 19.7272C51.4028 19.5729 50.4517 19.393 49.5005 19.1873C48.575 18.9817 47.7267 18.686 46.9554 18.3004C46.1842 17.8891 45.5544 17.3364 45.0659 16.6423C44.6032 15.9482 44.3718 15.0227 44.3718 13.8659C44.3718 12.7604 44.6803 11.7707 45.2973 10.8966C45.9143 10.0226 46.814 9.34133 47.9966 8.85289C49.2048 8.33874 50.6702 8.08167 52.3926 8.08167C53.7037 8.08167 55.0147 8.26162 56.3258 8.62152C57.6369 8.95572 58.7166 9.4056 59.565 9.97117L58.3696 12.1692C57.4698 11.5522 56.5058 11.1152 55.4775 10.8581C54.4492 10.5753 53.4209 10.4339 52.3926 10.4339C50.5673 10.4339 49.2177 10.7552 48.3436 11.3979C47.4953 12.0149 47.0711 12.8119 47.0711 13.7887C47.0711 14.56 47.3025 15.1641 47.7652 15.6011C48.2537 16.0381 48.8835 16.3852 49.6547 16.6423C50.4517 16.8736 51.3129 17.0664 52.2383 17.2207C53.1895 17.3749 54.1278 17.5677 55.0533 17.7991C56.0045 18.0048 56.8657 18.3004 57.6369 18.686C58.4338 19.0459 59.0637 19.5729 59.5264 20.267C60.0149 20.9354 60.2591 21.8223 60.2591 22.9278C60.2591 24.1103 59.9249 25.1386 59.2565 26.0127C58.6138 26.861 57.6626 27.5294 56.4029 28.0178C55.169 28.4806 53.6651 28.712 51.8913 28.712Z" fill="#272727"/>
<path d="M32.4585 28.712C30.5047 28.712 28.7437 28.2749 27.1756 27.4009C25.6331 26.5011 24.412 25.28 23.5122 23.7375C22.6125 22.1694 22.1626 20.3827 22.1626 18.3775C22.1626 16.3466 22.6125 14.56 23.5122 13.0175C24.412 11.4751 25.6331 10.2668 27.1756 9.39275C28.718 8.51869 30.479 8.08167 32.4585 8.08167C34.4636 8.08167 36.2375 8.51869 37.7799 9.39275C39.3481 10.2668 40.5692 11.4751 41.4432 13.0175C42.343 14.56 42.7929 16.3466 42.7929 18.3775C42.7929 20.3827 42.343 22.1694 41.4432 23.7375C40.5692 25.28 39.3481 26.5011 37.7799 27.4009C36.2118 28.2749 34.4379 28.712 32.4585 28.712ZM32.4585 26.2826C33.9238 26.2826 35.222 25.9612 36.3531 25.3186C37.4843 24.6502 38.3712 23.7247 39.0139 22.5421C39.6823 21.3339 40.0165 19.9457 40.0165 18.3775C40.0165 16.7837 39.6823 15.3955 39.0139 14.2129C38.3712 13.0304 37.4843 12.1177 36.3531 11.4751C35.222 10.8067 33.9366 10.4725 32.497 10.4725C31.0574 10.4725 29.772 10.8067 28.6409 11.4751C27.5098 12.1177 26.61 13.0304 25.9416 14.2129C25.2732 15.3955 24.939 16.7837 24.939 18.3775C24.939 19.9457 25.2732 21.3339 25.9416 22.5421C26.61 23.7247 27.5098 24.6502 28.6409 25.3186C29.772 25.9612 31.0445 26.2826 32.4585 26.2826Z" fill="#272727"/>
<path d="M10.4501 28.712C8.702 28.712 7.12098 28.3135 5.70707 27.5166C4.29316 26.6939 3.16202 25.5242 2.31368 24.0075C1.49104 22.465 1.07972 20.5884 1.07972 18.3775C1.07972 16.1667 1.49104 14.3029 2.31368 12.7861C3.13632 11.2437 4.25459 10.074 5.66851 9.27707C7.08242 8.48013 8.67629 8.08167 10.4501 8.08167C12.3782 8.08167 14.1006 8.51869 15.6173 9.39275C17.1598 10.2411 18.368 11.4494 19.2421 13.0175C20.1161 14.56 20.5532 16.3466 20.5532 18.3775C20.5532 20.4341 20.1161 22.2337 19.2421 23.7761C18.368 25.3186 17.1598 26.5268 15.6173 27.4009C14.1006 28.2749 12.3782 28.712 10.4501 28.712ZM0 36V8.27447H2.62217V14.3672L2.35224 18.4161L2.73785 22.5036V36H0ZM10.2573 26.2826C11.6969 26.2826 12.9823 25.9612 14.1134 25.3186C15.2446 24.6502 16.1443 23.7247 16.8127 22.5421C17.4811 21.3339 17.8153 19.9457 17.8153 18.3775C17.8153 16.8094 17.4811 15.434 16.8127 14.2515C16.1443 13.0689 15.2446 12.1435 14.1134 11.4751C12.9823 10.8067 11.6969 10.4725 10.2573 10.4725C8.81768 10.4725 7.51945 10.8067 6.36261 11.4751C5.23148 12.1435 4.33172 13.0689 3.66332 14.2515C3.02063 15.434 2.69929 16.8094 2.69929 18.3775C2.69929 19.9457 3.02063 21.3339 3.66332 22.5421C4.33172 23.7247 5.23148 24.6502 6.36261 25.3186C7.51945 25.9612 8.81768 26.2826 10.2573 26.2826Z" fill="#272727"/>
<path fill-rule="evenodd" clip-rule="evenodd" d="M13.9064 21.9806C12.9799 22.9091 11.6987 23.4836 10.2834 23.4836C7.45661 23.4836 5.16504 21.192 5.16504 18.3652C5.16504 15.5384 7.45661 13.2468 10.2834 13.2468C11.8159 13.2468 13.1911 13.9203 14.1291 14.9875C15.6075 16.4988 16.7253 17.2202 17.4824 17.2202H25.0316C25.8262 17.2202 27.0182 16.4255 28.6075 14.8362V14.8653C29.5414 13.8692 30.8691 13.2469 32.3422 13.2469C35.169 13.2469 37.4606 15.5384 37.4606 18.3652C37.4606 21.192 35.169 23.4836 32.3422 23.4836C30.8691 23.4836 29.5414 22.8613 28.6075 21.8652V21.9086C27.0182 20.3988 25.8262 19.6041 25.0316 19.6041H17.4824C16.5553 19.6041 15.4957 20.3988 13.9064 21.9881V21.9806Z" fill="url(#paint0_linear_212_752)"/>
<path fill-rule="evenodd" clip-rule="evenodd" d="M103.671 8.45411V0H100.653V28.2894H103.671V17.8718C103.671 16.2961 103.859 14.9629 104.234 13.872C104.622 12.7812 105.253 11.957 106.125 11.3994C107.01 10.8297 108.192 10.5449 109.671 10.5449C111.234 10.5449 112.392 10.957 113.143 11.7812C113.907 12.6054 114.288 13.8478 114.288 15.5083V28.2894H117.27V15.3083C117.27 13.6114 116.997 12.2297 116.452 11.1631C115.919 10.0964 115.113 9.30861 114.034 8.79954C112.967 8.29048 111.634 8.03595 110.034 8.03595C109.125 8.03595 108.265 8.16321 107.452 8.41775C106.64 8.66016 105.913 9.02378 105.271 9.5086C104.641 9.9813 104.119 10.5691 103.707 11.2721H103.507C103.568 10.86 103.61 10.4116 103.634 9.92676C103.659 9.42981 103.671 8.93893 103.671 8.45411ZM126.525 28.2894H123.488V0H126.525V28.2894ZM206.429 28.2894H209.466V0H206.429V28.2894ZM198.557 9.72675C197.442 8.5753 195.787 7.99957 193.594 7.99957C192.236 7.99957 190.988 8.2844 189.848 8.85407C188.709 9.41162 187.812 10.2661 187.158 11.4176H186.994C186.533 10.2661 185.788 9.41162 184.758 8.85407C183.74 8.2844 182.473 7.99957 180.958 7.99957C180.109 7.99957 179.31 8.12078 178.558 8.36319C177.807 8.6056 177.128 8.96316 176.522 9.43586C175.916 9.90856 175.413 10.4904 175.013 11.1812H174.849L174.395 8.36319H171.958V28.2894H174.976V17.7445C174.976 16.181 175.152 14.8659 175.504 13.7993C175.867 12.7205 176.449 11.9085 177.249 11.363C178.049 10.8176 179.11 10.5449 180.431 10.5449C181.364 10.5449 182.134 10.7267 182.74 11.0903C183.358 11.4418 183.818 11.9751 184.121 12.6902C184.437 13.4054 184.594 14.3023 184.594 15.381V28.2894H187.594V17.1446C187.594 14.975 188.03 13.3326 188.903 12.2175C189.776 11.1024 191.176 10.5449 193.103 10.5449C194.472 10.5449 195.503 10.9509 196.193 11.763C196.896 12.563 197.248 13.769 197.248 15.381V28.2894H200.23V15.2356C200.23 12.7024 199.672 10.8661 198.557 9.72675ZM168.05 22.1261H164.068V28.2894H161.123V22.1261H148.269V19.5808L160.923 1.56356H164.068V19.399H168.05V22.1261ZM161.123 19.399V10.7085C161.123 10.0419 161.129 9.44194 161.141 8.90863C161.153 8.3632 161.171 7.8602 161.195 7.39962C161.22 6.92691 161.238 6.47845 161.25 6.05423C161.274 5.63001 161.292 5.21185 161.304 4.79975H161.159C160.929 5.28458 160.662 5.7997 160.359 6.34513C160.068 6.87843 159.771 7.3572 159.468 7.78142L151.269 19.399H161.123ZM144.833 26.0532C145.475 25.1805 145.796 24.1078 145.796 22.8352C145.796 21.7443 145.548 20.8535 145.051 20.1626C144.566 19.4596 143.869 18.8657 142.96 18.3809C142.051 17.8839 140.972 17.4051 139.724 16.9446C138.475 16.4719 137.469 16.0598 136.706 15.7083C135.942 15.3568 135.385 14.981 135.033 14.581C134.694 14.1811 134.524 13.672 134.524 13.0539C134.524 12.2539 134.894 11.6236 135.633 11.163C136.384 10.7025 137.457 10.4722 138.851 10.4722C139.821 10.4722 140.772 10.5934 141.705 10.8358C142.639 11.0782 143.517 11.3752 144.342 11.7267L145.36 9.30859C144.451 8.90862 143.469 8.59348 142.414 8.36319C141.372 8.12078 140.251 7.99957 139.051 7.99957C136.833 7.99957 135.039 8.45409 133.669 9.36314C132.312 10.2601 131.633 11.5509 131.633 13.2357C131.633 14.3386 131.882 15.2356 132.379 15.9264C132.888 16.6173 133.603 17.2052 134.524 17.69C135.457 18.1627 136.56 18.6414 137.833 19.1263C139.118 19.599 140.124 20.0353 140.851 20.4353C141.578 20.8231 142.093 21.2292 142.396 21.6534C142.711 22.0655 142.869 22.5443 142.869 23.0897C142.869 24.0472 142.481 24.8048 141.705 25.3623C140.93 25.9199 139.681 26.1986 137.96 26.1986C136.784 26.1986 135.633 26.035 134.506 25.7077C133.379 25.3805 132.409 25.0169 131.597 24.6169V27.3986C132.36 27.7985 133.251 28.1076 134.269 28.3258C135.288 28.544 136.494 28.653 137.887 28.653C139.524 28.653 140.93 28.4349 142.105 27.9985C143.293 27.5622 144.202 26.9137 144.833 26.0532Z" fill="url(#paint1_linear_212_752)"/>
<rect x="86.3267" y="17.2653" width="8.08163" height="2.20408" fill="#3E4044"/>
<defs>
<linearGradient id="paint0_linear_212_752" x1="5.16504" y1="18.3652" x2="37.4604" y2="18.3652" gradientUnits="userSpaceOnUse">
<stop stop-color="#942193"/>
<stop offset="1" stop-color="#1E43FF"/>
</linearGradient>
<linearGradient id="paint1_linear_212_752" x1="100.653" y1="14.3265" x2="209.465" y2="14.3265" gradientUnits="userSpaceOnUse">
<stop stop-color="#942193"/>
<stop offset="1" stop-color="#001374"/>
</linearGradient>
</defs>
</svg>
