<svg width="147" height="49" viewBox="0 0 147 49" fill="none" xmlns="http://www.w3.org/2000/svg">
<path d="M142.66 34.96C141.54 34.96 140.56 34.56 139.72 33.76C138.92 32.92 138.52 31.94 138.52 30.82C138.52 29.66 138.92 28.68 139.72 27.88C140.56 27.04 141.54 26.62 142.66 26.62C143.82 26.62 144.8 27.04 145.6 27.88C146.4 28.68 146.8 29.66 146.8 30.82C146.8 31.94 146.4 32.92 145.6 33.76C144.8 34.56 143.82 34.96 142.66 34.96Z" fill="url(#paint0_linear_302_5)"/>
<path d="M122.074 34.24C118.754 34.24 115.794 33.54 113.194 32.14C110.634 30.7 108.614 28.74 107.134 26.26C105.694 23.74 104.974 20.86 104.974 17.62C104.974 14.34 105.654 11.46 107.014 8.98C108.414 6.46 110.334 4.5 112.774 3.1C115.214 1.66 118.014 0.940002 121.174 0.940002C124.294 0.940002 126.974 1.64 129.214 3.04C131.454 4.4 133.154 6.3 134.314 8.74C135.514 11.14 136.114 13.92 136.114 17.08C136.114 17.84 135.854 18.48 135.334 19C134.814 19.48 134.154 19.72 133.354 19.72H109.174V14.92H133.174L130.714 16.6C130.674 14.6 130.274 12.82 129.514 11.26C128.754 9.66 127.674 8.4 126.274 7.48C124.874 6.56 123.174 6.1 121.174 6.1C118.894 6.1 116.934 6.6 115.294 7.6C113.694 8.6 112.474 9.98 111.634 11.74C110.794 13.46 110.374 15.42 110.374 17.62C110.374 19.82 110.874 21.78 111.874 23.5C112.874 25.22 114.254 26.58 116.014 27.58C117.774 28.58 119.794 29.08 122.074 29.08C123.314 29.08 124.574 28.86 125.854 28.42C127.174 27.94 128.234 27.4 129.034 26.8C129.634 26.36 130.274 26.14 130.954 26.14C131.674 26.1 132.294 26.3 132.814 26.74C133.494 27.34 133.854 28 133.894 28.72C133.934 29.44 133.614 30.06 132.934 30.58C131.574 31.66 129.874 32.54 127.834 33.22C125.834 33.9 123.914 34.24 122.074 34.24Z" fill="url(#paint1_linear_302_5)"/>
<path d="M89.0158 34.24C86.2158 34.24 83.6158 33.82 81.2158 32.98C78.8558 32.1 77.0158 31 75.6958 29.68C75.0958 29.04 74.8358 28.32 74.9158 27.52C75.0358 26.68 75.4358 26 76.1158 25.48C76.9158 24.84 77.6958 24.58 78.4558 24.7C79.2558 24.78 79.9358 25.12 80.4958 25.72C81.1758 26.48 82.2558 27.2 83.7358 27.88C85.2558 28.52 86.9358 28.84 88.7758 28.84C91.0958 28.84 92.8558 28.46 94.0558 27.7C95.2958 26.94 95.9358 25.96 95.9758 24.76C96.0158 23.56 95.4358 22.52 94.2358 21.64C93.0758 20.76 90.9358 20.04 87.8158 19.48C83.7758 18.68 80.8358 17.48 78.9958 15.88C77.1958 14.28 76.2958 12.32 76.2958 10C76.2958 7.96 76.8958 6.28 78.0958 4.96C79.2958 3.6 80.8358 2.6 82.7158 1.96C84.5958 1.28 86.5558 0.940002 88.5958 0.940002C91.2358 0.940002 93.5758 1.36 95.6158 2.2C97.6558 3.04 99.2758 4.2 100.476 5.68C101.036 6.32 101.296 7 101.256 7.72C101.216 8.4 100.876 8.98 100.236 9.46C99.5958 9.9 98.8358 10.04 97.9558 9.88C97.0758 9.72 96.3358 9.36 95.7358 8.8C94.7358 7.84 93.6558 7.18 92.4958 6.82C91.3358 6.46 89.9958 6.28 88.4758 6.28C86.7158 6.28 85.2158 6.58 83.9758 7.18C82.7758 7.78 82.1758 8.66 82.1758 9.82C82.1758 10.54 82.3558 11.2 82.7158 11.8C83.1158 12.36 83.8758 12.88 84.9958 13.36C86.1158 13.8 87.7558 14.24 89.9158 14.68C92.9158 15.28 95.2758 16.04 96.9958 16.96C98.7558 17.88 100.016 18.96 100.776 20.2C101.536 21.4 101.916 22.8 101.916 24.4C101.916 26.24 101.416 27.9 100.416 29.38C99.4558 30.86 98.0158 32.04 96.0958 32.92C94.2158 33.8 91.8558 34.24 89.0158 34.24Z" fill="url(#paint2_linear_302_5)"/>
<path d="M54.4675 34.24C51.2275 34.24 48.3675 33.54 45.8875 32.14C43.4075 30.7 41.4475 28.74 40.0075 26.26C38.6075 23.74 37.9075 20.86 37.9075 17.62C37.9075 14.34 38.6075 11.46 40.0075 8.98C41.4475 6.46 43.4075 4.5 45.8875 3.1C48.3675 1.66 51.2275 0.940002 54.4675 0.940002C57.6675 0.940002 60.5075 1.66 62.9875 3.1C65.4675 4.5 67.4075 6.46 68.8075 8.98C70.2475 11.46 70.9675 14.34 70.9675 17.62C70.9675 20.86 70.2675 23.74 68.8675 26.26C67.4675 28.74 65.5275 30.7 63.0475 32.14C60.5675 33.54 57.7075 34.24 54.4675 34.24ZM54.4675 28.84C56.5475 28.84 58.3875 28.36 59.9875 27.4C61.5875 26.44 62.8275 25.12 63.7075 23.44C64.6275 21.76 65.0875 19.82 65.0875 17.62C65.0875 15.42 64.6275 13.48 63.7075 11.8C62.8275 10.08 61.5875 8.74 59.9875 7.78C58.3875 6.82 56.5475 6.34 54.4675 6.34C52.3875 6.34 50.5475 6.82 48.9475 7.78C47.3475 8.74 46.0875 10.08 45.1675 11.8C44.2475 13.48 43.7875 15.42 43.7875 17.62C43.7875 19.82 44.2475 21.76 45.1675 23.44C46.0875 25.12 47.3475 26.44 48.9475 27.4C50.5475 28.36 52.3875 28.84 54.4675 28.84Z" fill="url(#paint3_linear_302_5)"/>
<path d="M3.45999 48.04C2.57999 48.04 1.83999 47.74 1.23999 47.14C0.679994 46.58 0.399994 45.86 0.399994 44.98V17.62C0.439994 14.46 1.17999 11.62 2.61999 9.1C4.05999 6.58 6.01999 4.6 8.49999 3.16C10.98 1.68 13.78 0.940002 16.9 0.940002C20.06 0.940002 22.88 1.68 25.36 3.16C27.84 4.6 29.8 6.58 31.24 9.1C32.72 11.62 33.46 14.46 33.46 17.62C33.46 20.78 32.78 23.62 31.42 26.14C30.1 28.62 28.28 30.6 25.96 32.08C23.64 33.52 21.02 34.24 18.1 34.24C15.74 34.24 13.56 33.76 11.56 32.8C9.6 31.8 7.91999 30.46 6.51999 28.78V44.98C6.51999 45.86 6.23999 46.58 5.67999 47.14C5.11999 47.74 4.37999 48.04 3.45999 48.04ZM16.9 28.84C18.94 28.84 20.76 28.36 22.36 27.4C23.96 26.4 25.22 25.06 26.14 23.38C27.1 21.66 27.58 19.74 27.58 17.62C27.58 15.46 27.1 13.54 26.14 11.86C25.22 10.14 23.96 8.8 22.36 7.84C20.76 6.84 18.94 6.34 16.9 6.34C14.9 6.34 13.08 6.84 11.44 7.84C9.83999 8.8 8.57999 10.14 7.65999 11.86C6.73999 13.54 6.27999 15.46 6.27999 17.62C6.27999 19.74 6.73999 21.66 7.65999 23.38C8.57999 25.06 9.83999 26.4 11.44 27.4C13.08 28.36 14.9 28.84 16.9 28.84Z" fill="url(#paint4_linear_302_5)"/>
<defs>
<linearGradient id="paint1_linear_302_5" x1="-5" y1="4.00002" x2="150.674" y2="29.956" gradientUnits="userSpaceOnUse">
<stop stop-color="#ED00D5"/>
<stop offset="1" stop-color="#0013BB"/>
</linearGradient>
<linearGradient id="paint2_linear_302_5" x1="-5" y1="4.00001" x2="150.674" y2="29.9559" gradientUnits="userSpaceOnUse">
<stop stop-color="#ED00D5"/>
<stop offset="1" stop-color="#0013BB"/>
</linearGradient>
<linearGradient id="paint3_linear_302_5" x1="-5" y1="4.00001" x2="150.674" y2="29.956" gradientUnits="userSpaceOnUse">
<stop stop-color="#ED00D5"/>
<stop offset="1" stop-color="#0013BB"/>
</linearGradient>
<linearGradient id="paint4_linear_302_5" x1="-5" y1="4.00002" x2="150.674" y2="29.956" gradientUnits="userSpaceOnUse">
<stop stop-color="#ED00D5"/>
<stop offset="1" stop-color="#0013BB"/>
</linearGradient>
</defs>
</svg>
